# xmcd
#
# Track frame offsets: 
#        150
#        16585
#        36463
#        54616
#        73700
#        98685
#        114858
#        132112
#        148412
#        165104
#        186130
#        200316
#
# Disc length: 2922 seconds
#
# Revision: 0
# Processed by: cddbd v1.5.2PL0 Copyright (c) Steve Scherf et al.
# Submitted via: ExactAudioCopy v1.3
#
DISCID=9c0b680c
DTITLE=Chris Bevington Organisation - Cut And Run
DYEAR=2018
DGENRE=Blues Rock
TTITLE0=It's Too Late
TTITLE1=Had Enough
TTITLE2=Got To Know
TTITLE3=Won't Daydream No More
TTITLE4=Cut And Run
TTITLE5=It Ain't Easy
TTITLE6=She Ran Away To The City
TTITLE7=Sing Myself To Sleep
TTITLE8=Rollin'
TTITLE9=Ain't Got Nobody To Love
TTITLE10=Comin' Down With The Blues
TTITLE11=The Bad Guys
EXTD=
EXTT0=
EXTT1=
EXTT2=
EXTT3=
EXTT4=
EXTT5=
EXTT6=
EXTT7=
EXTT8=
EXTT9=
EXTT10=
EXTT11=
PLAYORDER=
